<svg width="56" height="58" viewBox="0 0 56 58" fill="none" xmlns="http://www.w3.org/2000/svg">
<path d="M17.6133 57.059C17.4817 57.0043 17.3524 56.9407 17.2163 56.8971C15.3423 56.2887 14.2388 54.7826 14.1826 52.7395C14.1702 52.2762 14.1804 51.8129 14.1804 51.2603H13.5032C9.38524 51.2603 5.26839 51.2603 1.15041 51.2603C0.222431 51.2603 -0.12064 50.8304 0.0368351 49.9138C0.738725 45.8332 3.00974 43.0008 6.87126 41.4289C6.92075 41.4088 6.96124 41.3664 7.04898 41.3039C5.43261 39.9329 4.63399 38.2057 4.83308 36.1046C4.97818 34.5673 5.67557 33.2744 6.86001 32.2563C9.21876 30.2277 12.8306 30.4186 14.9745 32.6749C17.0588 34.8676 17.3929 38.6769 14.3907 41.2793C15.385 41.8275 16.3828 42.3768 17.4243 42.9517C19.0137 41.1576 21.0092 39.8369 23.4601 39.0319C21.1306 37.2825 20.0474 35.0306 20.3343 32.225C20.5277 30.3371 21.44 28.7886 22.8989 27.556C25.8077 25.0988 30.2631 25.446 32.8614 28.2862C35.4553 31.122 35.5182 36.1102 31.5589 39.0297C33.9592 39.8357 35.9761 41.1476 37.5666 42.9528C38.5991 42.3835 39.5879 41.8386 40.6103 41.2748C39.0558 39.944 38.2381 38.2404 38.4259 36.1582C38.5688 34.5807 39.2695 33.2454 40.5057 32.2216C42.9736 30.1763 46.537 30.4342 48.6888 32.8044C50.6629 34.9781 50.9441 38.7383 47.9464 41.3117C48.0656 41.3742 48.1669 41.4367 48.276 41.4825C52.1083 43.1214 54.3343 45.9962 54.9822 50.0791C55.1014 50.8327 54.7032 51.2603 53.8945 51.2603C49.7765 51.2625 45.6596 51.2614 41.5417 51.2614C41.3212 51.2614 41.1007 51.2614 40.7802 51.2614C40.7802 51.9189 40.824 52.5285 40.7723 53.1303C40.6081 55.0494 39.4686 56.4003 37.6127 56.9418C37.5294 56.9664 37.4563 57.02 37.3776 57.0601H17.6133V57.059ZM27.4938 55.2761C30.4678 55.2761 33.4407 55.2828 36.4147 55.2727C37.7533 55.2683 38.8736 54.4041 38.9321 53.2129C38.9906 52.0328 39.0198 50.8248 38.8342 49.6649C38.0772 44.9267 34.4103 41.3027 29.4206 40.394C25.0439 39.5968 20.3264 41.4713 17.7022 45.5865C16.331 47.7368 15.9385 50.0858 15.9947 52.5977C16.0296 54.1395 17.0981 55.3085 18.7415 55.2861C21.6582 55.247 24.576 55.275 27.4938 55.275V55.2761ZM27.496 27.7324C24.513 27.7324 22.1047 30.1138 22.1036 33.0646C22.1025 35.9963 24.5422 38.4201 27.496 38.4201C30.4487 38.4201 32.8895 35.9963 32.8895 33.0657C32.8895 30.1149 30.4802 27.7336 27.4971 27.7336L27.496 27.7324ZM16.2782 44.4556C13.3952 42.398 10.3368 41.9257 7.10185 43.3045C4.3854 44.4623 2.71054 46.5534 1.97378 49.465C6.04789 49.465 10.0298 49.4673 14.0116 49.4516C14.1297 49.4516 14.3243 49.2696 14.3513 49.1446C14.6989 47.4956 15.3142 45.9572 16.277 44.4556H16.2782ZM53.0306 49.4393C52.1263 46.1782 50.1679 43.9643 46.9858 42.9651C44.0107 42.0318 41.2492 42.5933 38.8758 44.3573C39.5552 46.0878 40.1998 47.7278 40.8713 49.4393H53.0306ZM10.6788 40.711C12.9296 40.7211 14.7529 38.9348 14.7675 36.703C14.7833 34.4969 12.9386 32.6537 10.7103 32.6492C8.47638 32.6448 6.62717 34.4601 6.61367 36.6706C6.60018 38.879 8.43251 40.6999 10.6777 40.7099L10.6788 40.711ZM44.2817 40.711C46.528 40.7177 48.3671 38.9158 48.3761 36.6997C48.3851 34.4981 46.5325 32.6526 44.3087 32.6481C42.0692 32.6437 40.2369 34.4489 40.2223 36.6718C40.2088 38.8879 42.0343 40.7043 44.2817 40.7099V40.711Z" fill="white"/>
<path d="M21.5513 22.3925C21.7537 21.64 22.0057 20.6944 22.2622 19.7488C22.3926 19.2665 22.5063 18.7775 22.6738 18.3075C22.819 17.9 22.7413 17.6432 22.3814 17.3708C21.3398 16.5837 20.3342 15.7519 19.3129 14.9392C18.701 14.4524 18.5075 13.9723 18.6987 13.4085C18.9046 12.8023 19.359 12.5221 20.1407 12.4864C21.486 12.4261 22.8302 12.3412 24.1755 12.2932C24.5096 12.2809 24.6659 12.1637 24.7795 11.8567C25.2598 10.5538 25.7547 9.25539 26.2654 7.96367C26.6062 7.10178 27.4453 6.77355 28.1529 7.25138C28.4093 7.42443 28.6219 7.73257 28.7423 8.02507C29.2417 9.24199 29.7164 10.469 30.1618 11.706C30.3046 12.1045 30.4722 12.2966 30.9368 12.3066C32.2258 12.3334 33.5138 12.4305 34.8028 12.4852C35.6284 12.5199 36.0907 12.7956 36.2966 13.4152C36.4867 13.988 36.282 14.4647 35.6318 14.9816C34.6105 15.7944 33.5981 16.6183 32.5655 17.4165C32.2798 17.6387 32.182 17.8274 32.2945 18.2059C32.6814 19.5009 33.0166 20.8105 33.3664 22.1156C33.5543 22.8156 33.4114 23.3024 32.9244 23.6552C32.4474 24.0013 31.9221 23.9834 31.3102 23.5882C30.1663 22.8502 29.0179 22.119 27.8897 21.3576C27.5905 21.1555 27.3891 21.17 27.0967 21.3665C25.9347 22.1447 24.7536 22.8938 23.5793 23.6518C23.1373 23.9377 22.6682 23.9946 22.2025 23.7356C21.765 23.4922 21.5187 23.1148 21.5513 22.3914V22.3925ZM21.3792 14.2648C22.2543 14.9648 22.9629 15.6079 23.7469 16.1405C24.6468 16.75 24.8673 17.4713 24.5129 18.4827C24.198 19.3826 24.0034 20.3226 23.7132 21.4022C24.7885 20.7067 25.73 20.1127 26.6546 19.4942C27.2181 19.118 27.7535 19.1057 28.3171 19.4842C28.9672 19.9207 29.6286 20.3405 30.2878 20.7636C30.5701 20.9456 30.8592 21.1187 31.2675 21.371C30.948 20.1831 30.6916 19.1437 30.3868 18.1199C30.1663 17.3797 30.3564 16.8304 30.9717 16.3682C31.7467 15.7854 32.4924 15.1658 33.2483 14.5573C33.3349 14.4881 33.4024 14.3955 33.5273 14.2593C32.3203 14.1934 31.2011 14.1208 30.0808 14.075C29.3688 14.046 28.9549 13.6876 28.7209 13.039C28.4014 12.1503 28.0516 11.2728 27.7108 10.3919C27.6568 10.2535 27.5792 10.124 27.4667 9.89846C27.0325 11.035 26.6355 12.0521 26.2542 13.0747C26.0224 13.6955 25.6119 14.0438 24.9235 14.0739C23.7908 14.1231 22.6592 14.1956 21.3769 14.2671L21.3792 14.2648Z" fill="white"/>
<path d="M23.2757 8.86357C23.0564 9.14715 22.9113 9.51669 22.6604 9.61158C22.3815 9.71764 21.9012 9.69643 21.6897 9.51892C20.4209 8.45495 19.1971 7.33852 17.9755 6.22208C17.5819 5.86259 17.5774 5.34121 17.9013 4.97613C18.2376 4.59543 18.7742 4.54742 19.2016 4.9125C20.007 5.60134 20.7899 6.31809 21.5806 7.0248C21.9833 7.38429 22.4006 7.72927 22.7797 8.11109C22.9641 8.29754 23.0766 8.55543 23.2757 8.86469V8.86357Z" fill="white"/>
<path d="M32.6376 9.85385C32.389 9.62945 32.065 9.4497 31.9154 9.17729C31.713 8.80775 31.8502 8.42035 32.1775 8.12896C33.0796 7.324 33.9817 6.51794 34.8827 5.71187C35.1741 5.45174 35.4564 5.18044 35.759 4.93259C36.1999 4.57199 36.7173 4.5865 37.0649 4.95046C37.4282 5.33005 37.4068 5.87487 36.9625 6.27902C35.7792 7.35526 34.5846 8.42035 33.3811 9.47426C33.209 9.62498 32.9638 9.69197 32.6387 9.85497L32.6376 9.85385Z" fill="white"/>
<path d="M28.3925 2.52547C28.3925 3.0636 28.4026 3.60172 28.3891 4.13873C28.3756 4.69136 27.9954 5.06202 27.4791 5.05421C26.9853 5.04639 26.6085 4.68578 26.6029 4.1644C26.5894 3.0703 26.5883 1.97507 26.6029 0.880962C26.6097 0.350654 26.9764 0.0067915 27.4825 9.28744e-05C28.0101 -0.00660575 28.3756 0.349538 28.3903 0.911106C28.4038 1.44923 28.3936 1.98735 28.3936 2.52436L28.3925 2.52547Z" fill="white"/>
</svg>
