<svg width="56" height="55" viewBox="0 0 56 55" fill="none" xmlns="http://www.w3.org/2000/svg">
<path d="M0 46.0823C0.126981 45.6798 0.234592 45.2697 0.385247 44.8758C1.82831 41.1098 6.39963 39.801 9.61074 42.2302C9.73772 42.3271 9.86901 42.4186 9.96048 42.4853C14.1767 38.2684 18.3746 34.0697 22.6059 29.8377C20.4213 26.6562 20.4009 23.395 22.6015 20.1736C20.0598 17.6271 17.5202 15.0838 14.9396 12.4975C13.9044 13.0668 12.7465 13.1831 11.5617 12.7332C10.7364 12.4189 10.0735 11.8786 9.61074 11.1219C8.60996 9.48597 8.87683 7.37104 10.2317 6.11177C11.6521 4.79008 13.7957 4.62756 15.3066 5.72753C16.8325 6.8372 17.561 8.93598 16.5043 10.9401C19.0547 13.4909 21.5943 16.031 24.178 18.6151C25.5608 17.6131 27.1675 16.9867 28.9753 16.9846C30.7886 16.9813 32.4028 17.5905 33.8114 18.6205C37.0978 15.3335 40.3584 12.0723 43.6373 8.79284C41.9134 5.16248 43.83 2.00569 46.0468 0.757182C48.525 -0.638779 51.7674 -0.0608061 53.586 2.13054C55.4864 4.42091 55.4724 7.67564 53.5462 9.91004C52.4528 11.1779 51.0528 11.8517 49.3967 12.0045C48.0806 12.1261 47.1595 11.8086 45.0352 10.5483C41.8252 13.7546 38.6259 16.9501 35.3814 20.1919C36.3984 21.5631 37.0074 23.1787 37.0107 24.9836C37.0128 26.794 36.4134 28.4149 35.3265 29.8743C35.4546 30.0121 35.5579 30.1316 35.6688 30.2435C37.9845 32.5608 40.3036 34.8737 42.6118 37.1985C42.855 37.4439 43.0315 37.5225 43.3845 37.3611C45.4527 36.4118 47.9805 37.4676 48.7349 39.5642C49.5517 41.8342 48.341 44.2053 46.0306 44.865C43.8601 45.485 41.5056 44.0427 41.0676 41.789C40.9051 40.9527 40.9912 40.1196 41.3571 39.3242C41.4259 39.1746 41.4173 38.8808 41.3173 38.7796C38.8637 36.2988 36.3941 33.834 33.9739 31.4145C33.1141 31.8203 32.3048 32.2196 31.4795 32.5823C31.1728 32.7168 30.8327 32.8212 30.5023 32.8417C30.0525 32.8707 29.9998 33.0978 30.0009 33.4735C30.0116 36.5162 30.0138 39.5599 29.9977 42.6037C29.9955 42.9858 30.1246 43.116 30.483 43.2086C33.2572 43.9308 35.0941 46.4181 35.0037 49.2897C34.9176 52.0052 32.8515 54.3677 30.0999 54.9015C30.017 54.9177 29.9395 54.9672 29.8599 55.0005H28.1414C28.0607 54.9672 27.9832 54.9177 27.8992 54.9015C25.1659 54.3763 23.0869 52.0235 22.9954 49.35C22.8953 46.4289 24.7118 43.9373 27.5043 43.2108C27.8745 43.115 27.9896 42.9686 27.9853 42.5973C27.9681 40.8967 27.9778 39.1972 27.9778 37.4967C27.9778 36.1362 27.9886 34.7758 27.9649 33.4164C27.9616 33.2356 27.811 32.9213 27.6872 32.8998C26.3765 32.6673 25.2036 32.1367 24.135 31.3478C24.0597 31.4027 23.9962 31.4371 23.9478 31.4855C19.809 35.6228 15.6725 39.7623 11.5284 43.8942C11.3218 44.0998 11.339 44.2526 11.4477 44.4969C11.9233 45.5614 12.1213 46.6646 11.9405 47.8378C11.5305 50.5005 9.41058 52.6574 6.87742 52.9491C3.94394 53.286 1.36343 51.7533 0.361573 49.0701C0.21845 48.6891 0.119448 48.2952 0 47.9088C0 47.2996 0 46.6915 0 46.0823ZM29.013 30.9689C32.3167 30.956 34.9757 28.3018 34.9854 25.0062C34.9951 21.7203 32.2725 19.0048 28.9764 19.0112C25.7137 19.0177 23.0105 21.7203 22.9976 24.9901C22.9846 28.2846 25.6986 30.9818 29.013 30.9689ZM52.9586 6.02997C52.9694 3.8354 51.2239 2.05089 49.0448 2.03044C46.8388 2.00892 45.0298 3.7719 45.0019 5.97185C44.9739 8.12445 46.8173 9.98322 48.9867 9.98861C51.1443 9.99399 52.9489 8.19657 52.9597 6.02997H52.9586ZM28.9904 52.9674C31.1695 52.9696 32.9537 51.2055 32.9742 49.0271C32.9957 46.8562 31.1717 45.0136 28.9979 45.0093C26.8457 45.0049 25.0314 46.8077 25.0174 48.9657C25.0034 51.17 26.7855 52.9663 28.9893 52.9674H28.9904ZM5.98317 43.0235C3.77499 43.0385 2.01448 44.8284 2.03062 47.0424C2.04676 49.2154 3.85355 50.9978 6.01546 50.9741C8.19996 50.9493 9.97769 49.1756 9.98738 47.009C9.99706 44.8327 8.16553 43.0095 5.9821 43.0235H5.98317ZM46.9571 40.9731C46.9475 39.8753 46.0457 38.9841 44.9663 39.0056C43.8784 39.0272 43.0003 39.9356 43.0175 41.0237C43.0347 42.1215 43.9171 42.9815 45.0169 42.9718C46.1124 42.9632 46.9658 42.0828 46.9571 40.972V40.9731ZM14.9612 9.02101C14.973 7.91565 14.1175 7.02986 13.0199 7.01048C11.9373 6.99111 11.042 7.87691 11.0323 8.97581C11.0237 10.0898 11.8716 10.9605 12.9736 10.968C14.0884 10.9756 14.9493 10.1328 14.9601 9.02209L14.9612 9.02101Z" fill="white"/>
</svg>
