<svg width="52" height="54" viewBox="0 0 52 54" fill="none" xmlns="http://www.w3.org/2000/svg">
<path d="M25.2101 53.9097C23.2505 53.4699 21.9785 51.9554 20.4419 50.8564C20.1708 50.6623 19.9156 50.4472 19.6593 50.2352C19.0106 49.6994 18.2776 49.4378 17.4286 49.4832C16.1155 49.5517 14.7993 49.5686 13.4883 49.6582C10.9159 49.8323 8.95842 48.4654 8.26865 45.9763C7.91428 44.697 7.54303 43.4208 7.19814 42.1383C6.964 41.2682 6.4915 40.6006 5.7258 40.1102C4.60467 39.393 3.50674 38.6378 2.40037 37.8974C0.284668 36.482 -0.409316 34.379 0.458692 31.9996C0.932246 30.7024 1.40053 29.403 1.8899 28.112C2.18311 27.3379 2.18205 26.5838 1.88779 25.8107C1.39209 24.5029 0.915371 23.1888 0.437598 21.8736C-0.395605 19.5807 0.299434 17.4428 2.31811 16.0865C3.43818 15.3345 4.54982 14.5677 5.68678 13.8432C6.48623 13.3338 6.9735 12.6408 7.21502 11.7327C7.57361 10.3817 7.95014 9.03485 8.35303 7.69645C9.02486 5.46157 10.956 4.13477 13.2837 4.25711C14.7191 4.332 16.1567 4.38157 17.5931 4.43958C18.3051 4.46805 18.9368 4.24762 19.4947 3.80887C20.6117 2.93137 21.7317 2.05915 22.8423 1.17532C24.8104 -0.389838 27.0716 -0.393002 29.0544 1.17321C30.1271 2.02118 31.2071 2.85965 32.2744 3.71501C32.9019 4.21704 33.598 4.47965 34.408 4.44169C35.739 4.37946 37.0722 4.35942 38.4021 4.26872C40.9766 4.09469 42.9331 5.45524 43.6281 7.94219C43.9994 9.27215 44.3885 10.5968 44.7514 11.9289C44.9644 12.7115 45.4074 13.3053 46.0824 13.7482C47.2394 14.5076 48.3911 15.2744 49.5365 16.0517C51.6216 17.466 52.2997 19.5627 51.4423 21.92C50.9698 23.2183 50.5005 24.5166 50.0111 25.8075C49.7179 26.5817 49.7158 27.3358 50.009 28.1089C50.5036 29.4167 50.9814 30.7319 51.4592 32.046C52.2934 34.34 51.6131 36.4536 49.585 37.8363C48.4565 38.6062 47.3269 39.3761 46.1752 40.1102C45.4074 40.5995 44.9349 41.2661 44.7007 42.1352C44.3558 43.4177 43.9867 44.6938 43.6302 45.9732C42.9362 48.4654 40.9819 49.8281 38.4095 49.6551C37.0627 49.5644 35.7116 49.5422 34.3637 49.4821C33.5917 49.4473 32.923 49.6962 32.324 50.1729C31.5836 50.7625 30.8284 51.3331 30.0954 51.9322C29.0639 52.7738 28.0398 53.6218 26.6888 53.9086H25.2154L25.2101 53.9097ZM15.4215 6.1334C15.4215 6.08594 15.4215 6.03848 15.4215 5.99102C14.6506 5.99102 13.8796 6.00368 13.1086 5.98786C11.4549 5.95411 10.3917 6.73352 9.94033 8.33032C9.55432 9.69297 9.16936 11.0556 8.78545 12.4183C8.4585 13.5806 7.79193 14.4886 6.78471 15.1552C5.62982 15.9188 4.48338 16.695 3.33272 17.465C1.87514 18.4406 1.45854 19.7273 2.0692 21.381C2.53537 22.6445 2.99416 23.9102 3.47721 25.1663C3.93811 26.3665 3.93705 27.5531 3.47932 28.7533C2.98678 30.0442 2.51322 31.3415 2.04178 32.6409C1.4733 34.2071 1.90256 35.5086 3.28314 36.4325C4.44752 37.2119 5.61084 37.9955 6.78154 38.7665C7.80775 39.4425 8.47115 40.3675 8.79705 41.5519C9.16725 42.9009 9.55748 44.2435 9.93928 45.5893C10.3928 47.185 11.458 47.9781 13.1054 47.9317C14.5082 47.8927 15.9109 47.8621 17.3126 47.7883C18.6014 47.7208 19.7236 48.0899 20.7235 48.8957C21.7887 49.7542 22.8697 50.5906 23.9424 51.4396C25.2523 52.4764 26.616 52.488 27.9291 51.4607C29.0196 50.6064 30.1123 49.7542 31.1902 48.8841C32.1763 48.0889 33.2848 47.724 34.5536 47.7862C35.9721 47.8558 37.3928 47.8927 38.8124 47.9307C40.425 47.975 41.5092 47.1713 41.9522 45.6167C42.3393 44.2551 42.7295 42.8945 43.105 41.5287C43.4309 40.3443 44.108 39.4278 45.1342 38.7538C46.2764 38.004 47.4092 37.2372 48.544 36.4757C50.0269 35.4811 50.4393 34.1934 49.8181 32.5154C49.3561 31.2698 48.91 30.0179 48.4301 28.7786C47.9576 27.5604 47.9576 26.3623 48.429 25.1431C48.9026 23.9207 49.3382 22.6836 49.7949 21.4538C50.4467 19.6967 50.049 18.4469 48.506 17.4143C47.3839 16.6645 46.2669 15.9072 45.1395 15.1668C44.1143 14.4929 43.4361 13.5774 43.1081 12.393C42.7358 11.0451 42.3456 9.70247 41.9638 8.35774C41.4987 6.71876 40.4545 5.9404 38.767 5.99102C37.3643 6.03215 35.9616 6.06485 34.5599 6.13446C33.2911 6.19669 32.1826 5.83282 31.1954 5.03864C30.1165 4.17063 29.0249 3.31739 27.9344 2.46309C26.6213 1.43372 25.2565 1.44321 23.9487 2.47891C22.8212 3.37012 21.6938 4.26239 20.56 5.14622C19.7489 5.77797 18.8345 6.13657 17.7935 6.13235C17.0046 6.12919 16.2157 6.13235 15.4258 6.13235L15.4215 6.1334Z" fill="white"/>
<path d="M16.2948 37.5537C16.028 37.348 15.7021 37.2183 15.6051 36.9904C15.4996 36.7437 15.5724 36.3967 15.6388 36.1108C15.6726 35.9632 15.8582 35.8472 15.9816 35.7227C22.2296 29.4737 28.4775 23.2257 34.7265 16.9778C34.8499 16.8544 34.9702 16.7194 35.1168 16.6276C35.4891 16.3945 35.8635 16.4314 36.1715 16.7383C36.4794 17.0463 36.5111 17.4186 36.2822 17.7941C36.2105 17.9112 36.105 18.0113 36.0069 18.1094C29.6978 24.4207 23.3876 30.7319 17.0711 37.0358C16.8717 37.2351 16.5944 37.3564 16.2948 37.5526V37.5537Z" fill="white"/>
<path d="M22.9119 21.0731C22.9088 23.6106 20.8743 25.6578 18.3483 25.6673C15.8276 25.6757 13.734 23.5716 13.7456 21.0393C13.7572 18.5344 15.8582 16.4546 18.3557 16.4746C20.8922 16.4947 22.9161 18.5376 22.9119 21.0731ZM18.304 23.9292C19.9208 23.9408 21.2023 22.6973 21.2149 21.1047C21.2265 19.4974 19.9746 18.2201 18.3757 18.2085C16.7631 18.1969 15.4922 19.4288 15.4595 21.033C15.4279 22.6108 16.7114 23.9176 18.304 23.9292Z" fill="white"/>
<path d="M28.9827 32.8761C28.9701 30.3427 30.9856 28.2913 33.5221 28.2565C36.0111 28.2217 38.13 30.3037 38.1501 32.8054C38.1701 35.343 36.1029 37.4376 33.5653 37.4502C31.0478 37.4629 28.9954 35.4136 28.9827 32.8761ZM33.5537 29.9947C31.9432 29.9968 30.6797 31.255 30.6808 32.856C30.6808 34.457 31.9474 35.7153 33.5569 35.7163C35.1558 35.7163 36.4394 34.4402 36.4372 32.8529C36.4341 31.2613 35.1537 29.9926 33.5537 29.9947Z" fill="white"/>
</svg>
